<svg xmlns="http://www.w3.org/2000/svg" viewBox="0 0 1100 520" font-family="Segoe UI, Arial, sans-serif">
  <defs>
    <filter id="shadow" x="-2%" y="-2%" width="104%" height="108%">
      <feDropShadow dx="2" dy="3" stdDeviation="3" flood-opacity="0.18"/>
    </filter>
    <marker id="arrow" markerWidth="10" markerHeight="7" refX="10" refY="3.5" orient="auto">
      <polygon points="0 0, 10 3.5, 0 7" fill="#334155"/>
    </marker>
  </defs>

  <!-- White main background -->
  <rect width="1100" height="520" fill="#ffffff"/>

  <!-- Title -->
  <text x="550" y="35" text-anchor="middle" font-size="22" font-weight="bold" fill="#0f172a">Deployment Flow — Execution Order</text>

  <!-- Row 1: Steps 1-4 (Setup + Data) -->
  <rect x="40" y="60" width="220" height="65" rx="8" fill="#0e7490" filter="url(#shadow)"/>
  <text x="150" y="86" text-anchor="middle" font-size="12" font-weight="bold" fill="#ffffff">Step 1</text>
  <text x="150" y="104" text-anchor="middle" font-size="10" fill="#cffafe">01_database_and_schema.sql</text>
  <text x="150" y="118" text-anchor="middle" font-size="9" fill="#a5f3fc">DB + 9 Schemas + Warehouse</text>

  <line x1="260" y1="92" x2="290" y2="92" stroke="#334155" stroke-width="1.5" marker-end="url(#arrow)"/>

  <rect x="295" y="60" width="220" height="65" rx="8" fill="#0e7490" filter="url(#shadow)"/>
  <text x="405" y="86" text-anchor="middle" font-size="12" font-weight="bold" fill="#ffffff">Step 2</text>
  <text x="405" y="104" text-anchor="middle" font-size="10" fill="#cffafe">02_create_tables.sql</text>
  <text x="405" y="118" text-anchor="middle" font-size="9" fill="#a5f3fc">22 Tables across 4 Schemas</text>

  <line x1="515" y1="92" x2="545" y2="92" stroke="#334155" stroke-width="1.5" marker-end="url(#arrow)"/>

  <rect x="550" y="60" width="220" height="65" rx="8" fill="#0e7490" filter="url(#shadow)"/>
  <text x="660" y="86" text-anchor="middle" font-size="12" font-weight="bold" fill="#ffffff">Step 3</text>
  <text x="660" y="104" text-anchor="middle" font-size="10" fill="#cffafe">03_ISA_95_Ontology.sql</text>
  <text x="660" y="118" text-anchor="middle" font-size="9" fill="#a5f3fc">Ontology Tables + Seed Data</text>

  <line x1="770" y1="92" x2="800" y2="92" stroke="#334155" stroke-width="1.5" marker-end="url(#arrow)"/>

  <rect x="805" y="60" width="250" height="65" rx="8" fill="#0e7490" filter="url(#shadow)"/>
  <text x="930" y="86" text-anchor="middle" font-size="12" font-weight="bold" fill="#ffffff">Step 4</text>
  <text x="930" y="104" text-anchor="middle" font-size="10" fill="#cffafe">04_generate_synthetic_data.sql</text>
  <text x="930" y="118" text-anchor="middle" font-size="9" fill="#a5f3fc">107,000+ Rows Synthetic Data</text>

  <!-- Down connector -->
  <line x1="930" y1="125" x2="930" y2="155" stroke="#334155" stroke-width="1.5"/>
  <line x1="930" y1="155" x2="150" y2="155" stroke="#334155" stroke-width="1.5"/>
  <line x1="150" y1="155" x2="150" y2="168" stroke="#334155" stroke-width="1.5" marker-end="url(#arrow)"/>

  <!-- Row 2: Steps 5-7 (Views + Search) -->
  <rect x="40" y="173" width="220" height="65" rx="8" fill="#7c3aed" filter="url(#shadow)"/>
  <text x="150" y="199" text-anchor="middle" font-size="12" font-weight="bold" fill="#ffffff">Step 5</text>
  <text x="150" y="217" text-anchor="middle" font-size="10" fill="#ede9fe">05_create_views.sql</text>
  <text x="150" y="231" text-anchor="middle" font-size="9" fill="#ddd6fe">6 Analytical Views</text>

  <line x1="260" y1="205" x2="290" y2="205" stroke="#334155" stroke-width="1.5" marker-end="url(#arrow)"/>

  <rect x="295" y="173" width="220" height="65" rx="8" fill="#7c3aed" filter="url(#shadow)"/>
  <text x="405" y="199" text-anchor="middle" font-size="12" font-weight="bold" fill="#ffffff">Step 6</text>
  <text x="405" y="217" text-anchor="middle" font-size="10" fill="#ede9fe">06_create_semantic_views.sql</text>
  <text x="405" y="231" text-anchor="middle" font-size="9" fill="#ddd6fe">3 Semantic Views</text>

  <line x1="515" y1="205" x2="545" y2="205" stroke="#334155" stroke-width="1.5" marker-end="url(#arrow)"/>

  <rect x="550" y="173" width="220" height="65" rx="8" fill="#7c3aed" filter="url(#shadow)"/>
  <text x="660" y="199" text-anchor="middle" font-size="12" font-weight="bold" fill="#ffffff">Step 7</text>
  <text x="660" y="217" text-anchor="middle" font-size="10" fill="#ede9fe">07_create_cortex_search.sql</text>
  <text x="660" y="231" text-anchor="middle" font-size="9" fill="#ddd6fe">Cortex Search Service</text>

  <!-- Down connector from Row 2 to Row 3 -->
  <line x1="660" y1="238" x2="660" y2="265" stroke="#334155" stroke-width="1.5"/>
  <line x1="660" y1="265" x2="150" y2="265" stroke="#334155" stroke-width="1.5"/>
  <line x1="150" y1="265" x2="150" y2="278" stroke="#334155" stroke-width="1.5" marker-end="url(#arrow)"/>

  <!-- Row 3: Steps 8-9 (ML) -->
  <rect x="40" y="283" width="220" height="65" rx="8" fill="#059669" filter="url(#shadow)"/>
  <text x="150" y="309" text-anchor="middle" font-size="12" font-weight="bold" fill="#ffffff">Step 8</text>
  <text x="150" y="327" text-anchor="middle" font-size="10" fill="#d1fae5">08_ml_models.ipynb</text>
  <text x="150" y="341" text-anchor="middle" font-size="9" fill="#a7f3d0">ML Model Training (Notebook)</text>

  <line x1="260" y1="315" x2="290" y2="315" stroke="#334155" stroke-width="1.5" marker-end="url(#arrow)"/>

  <rect x="295" y="283" width="220" height="65" rx="8" fill="#059669" filter="url(#shadow)"/>
  <text x="405" y="309" text-anchor="middle" font-size="12" font-weight="bold" fill="#ffffff">Step 9</text>
  <text x="405" y="327" text-anchor="middle" font-size="10" fill="#d1fae5">09_ml_model_functions.sql</text>
  <text x="405" y="341" text-anchor="middle" font-size="9" fill="#a7f3d0">4 ML Prediction UDFs</text>

  <!-- Down connector from Row 3 to Row 4 -->
  <line x1="405" y1="348" x2="405" y2="378" stroke="#334155" stroke-width="1.5" marker-end="url(#arrow)"/>

  <!-- Row 4: Step 10 (Agent) -->
  <rect x="200" y="383" width="500" height="75" rx="10" fill="#0f766e" filter="url(#shadow)"/>
  <text x="450" y="413" text-anchor="middle" font-size="14" font-weight="bold" fill="#ffffff">Step 10 — 10_create_agent.sql</text>
  <text x="450" y="433" text-anchor="middle" font-size="12" fill="#99f6e4">ENERGY_RECOVERY_AGENT</text>
  <text x="450" y="450" text-anchor="middle" font-size="10" fill="#5eead4">3 Analyst + 1 Search + 4 ML = 8 Tools</text>

  <!-- Dependencies Box (right side) -->
  <rect x="770" y="173" width="285" height="195" rx="8" fill="#f8fafc" stroke="#cbd5e1" stroke-width="1.5" filter="url(#shadow)"/>
  <text x="912" y="198" text-anchor="middle" font-size="13" font-weight="bold" fill="#0f172a">Dependencies</text>
  <line x1="790" y1="206" x2="1035" y2="206" stroke="#e2e8f0" stroke-width="1"/>
  <text x="790" y="228" font-size="10" fill="#475569">Step 1 → 2: Tables need schemas</text>
  <text x="790" y="248" font-size="10" fill="#475569">Step 2 → 3: Ontology needs tables</text>
  <text x="790" y="268" font-size="10" fill="#475569">Step 3 → 4: Data fills tables</text>
  <text x="790" y="288" font-size="10" fill="#475569">Step 4 → 5-7: Views need data</text>
  <text x="790" y="308" font-size="10" fill="#475569">Step 7 → 8-9: ML uses tables</text>
  <text x="790" y="328" font-size="10" fill="#475569">Steps 6,7,9 → 10: Agent needs all</text>
  <text x="790" y="355" font-size="10" font-weight="bold" fill="#0f172a">All steps are required.</text>
</svg>
