<?xml version="1.0" encoding="UTF-8"?>
<svg xmlns="http://www.w3.org/2000/svg" viewBox="0 0 200 60" fill="none">
  <path d="M34.3 30L43.8 24.5V13.6L34.3 8.1L24.8 13.6V24.5L34.3 30Z" fill="#29B5E8"/>
  <path d="M24.8 35.5V46.4L34.3 51.9L43.8 46.4V35.5L34.3 30L24.8 35.5Z" fill="#29B5E8"/>
  <path d="M15.3 19.1L5.8 24.5V35.5L15.3 40.9L24.8 35.5V24.5L15.3 19.1Z" fill="#29B5E8"/>
  <path d="M43.8 24.5L53.3 19.1L43.8 13.6V24.5Z" fill="#29B5E8"/>
  <path d="M43.8 35.5V46.4L53.3 40.9L43.8 35.5Z" fill="#29B5E8"/>
  <path d="M53.3 19.1V30L62.8 24.5V13.6L53.3 19.1Z" fill="#29B5E8"/>
  <path d="M53.3 30V40.9L62.8 46.4V35.5L53.3 30Z" fill="#29B5E8"/>
  <text x="72" y="36" font-family="Segoe UI, Arial, sans-serif" font-size="18" font-weight="bold" fill="#29B5E8">Snowflake</text>
</svg>
